<?xml version="1.0" encoding="UTF-8"?>
<svg xmlns="http://www.w3.org/2000/svg" xmlns:xlink="http://www.w3.org/1999/xlink" width="32px" height="32px" viewBox="0 0 32 32" version="1.1">
<defs>
<filter id="alpha" filterUnits="objectBoundingBox" x="0%" y="0%" width="100%" height="100%">
  <feColorMatrix type="matrix" in="SourceGraphic" values="0 0 0 0 1 0 0 0 0 1 0 0 0 0 1 0 0 0 1 0"/>
</filter>
<mask id="mask0">
  <g filter="url(#alpha)">
<rect x="0" y="0" width="32" height="32" style="fill:rgb(0%,0%,0%);fill-opacity:0.988235;stroke:none;"/>
  </g>
</mask>
<clipPath id="clip1">
  <rect x="0" y="0" width="32" height="32"/>
</clipPath>
<g id="surface5" clip-path="url(#clip1)">
<path style=" stroke:none;fill-rule:evenodd;fill:rgb(49.803922%,0%,50.196078%);fill-opacity:1;" d="M 14.78125 0.03125 C 19.914062 -0.261719 23.820312 1.757812 26.5 6.09375 C 28.035156 8.910156 28.386719 11.867188 27.5625 14.96875 C 27.023438 16.667969 26.316406 18.292969 25.4375 19.84375 C 22.8125 24.25 19.679688 28.273438 16.03125 31.90625 C 12.230469 28.117188 8.992188 23.910156 6.3125 19.28125 C 5.417969 17.683594 4.753906 15.996094 4.3125 14.21875 C 3.527344 9.472656 4.972656 5.566406 8.65625 2.5 C 10.472656 1.121094 12.515625 0.296875 14.78125 0.03125 Z M 15.53125 4.03125 C 19.4375 4.050781 22.117188 5.863281 23.5625 9.46875 C 24.511719 12.832031 23.710938 15.695312 21.15625 18.0625 C 18.308594 20.214844 15.289062 20.488281 12.09375 18.875 C 9.296875 17.128906 7.976562 14.597656 8.125 11.28125 C 8.613281 7.832031 10.5 5.53125 13.78125 4.375 C 14.367188 4.226562 14.949219 4.109375 15.53125 4.03125 Z M 15.53125 4.03125 "/>
</g>
</defs>
<g id="surface1">
<use xlink:href="#surface5" mask="url(#mask0)"/>
</g>
</svg>
